<svg id="Layer_1" data-name="Layer 1" xmlns="http://www.w3.org/2000/svg" viewBox="0 0 1975.8 1975.68"><title>Sohbat-e-islam Logo Rounded (Black)</title><path d="M1987.24,420.26a10.88,10.88,0,0,1-.15-1.51c-1.6-47.38-12.36-92.79-30.08-136.56A430.41,430.41,0,0,0,1582.56,13.24a24.68,24.68,0,0,1-3.06-.41,33,33,0,0,0-6-.57H425.86a34.6,34.6,0,0,0-4.44.28c-4.29.55-8.57,1.14-12.88,1.48C346.89,19,288.72,35.87,235.09,66.4Q68,161.55,23.06,349a364.57,364.57,0,0,0-9.79,73.28c-.53,16.32-1,32.65-1,49q-.09,540.84,0,1081.7c0,77.7,17.85,151.09,57.3,218.33q94.6,161.29,276.71,205.92A380.31,380.31,0,0,0,411,1987l.83.08a73.47,73.47,0,0,0,10.47.89H1581.77a43,43,0,0,0,6.6-.5c2.68-.41,5.37-.8,8.08-1,54.71-4.87,106.78-19.23,155.33-44.57q167.52-87.42,220.81-269.06c7.32-25,11.57-50.68,14-76.63.42-4.53.23-9.11.48-13.66a26.22,26.22,0,0,1,.39-3,34.85,34.85,0,0,0,.54-6V428.47A50.35,50.35,0,0,0,1987.24,420.26ZM1572,342.4c1.07-4.82,2-9.66,3.12-14.46v0a2,2,0,0,1,3.9-.11c.11.35.22.71.3,1.07,1,4.25,1.79,8.54,2.7,12.81,1.4,6.53,3,7.73,9.86,7.1,4.35-.41,8.68-1,13-1.37a29.71,29.71,0,0,1,3.23,0,1.42,1.42,0,0,1,.74,2.62l-1.56,1c-2.72,1.72-5.57,3.24-8.37,4.84-11.24,6.39-11.23,6.38-5.79,18.43,1.37,3,2.69,6.11,4,9.24a1.83,1.83,0,0,1-2.9,2.1l-1.38-1.22c-3.57-3.14-7-6.43-10.55-9.56-4-3.54-6.44-3.57-10.43-.09-3.58,3.11-7,6.41-10.57,9.54a16.23,16.23,0,0,1-1.88,1.38c-2.23,1.16-2.67,0-2.65-1.24a7.16,7.16,0,0,1,.44-1.81c1.94-4.54,4.08-9,6.06-13.51,2.43-5.56,1.77-7.48-3.61-10.65-4.25-2.5-8.57-4.89-12.81-7.41a10.14,10.14,0,0,1-1.86-1.59,1.3,1.3,0,0,1,1-2.24l1.91.15c5.1.42,10.19,1.09,15.29,1.52C1569,349.33,1570.8,348,1572,342.4Zm-72.32,26.5c1.72-36.86,33-61.95,63-61.83-28,12.39-42,32.76-36.43,63.39,4,21.78,22,38.28,43.81,41.64a52.33,52.33,0,0,0,35.63-6.78c11-6.53,18.55-16,23.66-27.68-1.13,30-28.14,61.81-68.32,59.63C1525.48,435.34,1498,404.92,1499.71,368.9ZM667.32,1616.09V1623H379.9c-.1-2.19-.25-4-.25-5.89q0-155.31,0-310.61c0-37.6,12.1-71,34.72-101a222.59,222.59,0,0,1,71.8-62.19c11-6,22.39-11.24,33.61-16.8,2.07-1,4-1.5,6.48-.43,29.39,12.9,57.32,28.25,80.67,50.62,20.32,19.46,37.27,41.57,48.24,67.78a153.7,153.7,0,0,1,11.89,59.39q.23,95.46.24,190.91Q667.36,1555.41,667.32,1616.09Zm247.18,6.84H757.77v-7.32q0-154.74-.06-309.49c-.06-35.68-6-70.32-20.65-103.15-12.4-27.75-30.86-51.18-50.93-73.74-32-36-71.88-59.83-115.53-78.24-14-5.89-28.38-10.82-42.59-16.18-1.23-.46-2.48-.89-4.09-1.47-.17-3-.44-6-.5-9-1.11-63.41,9.89-124.38,36.8-182.11,27.12-58.19,67.71-105.11,119.88-142.12,39.21-27.81,79.07-54.64,120.54-79a406.82,406.82,0,0,0,61.18-43.59c1-.84,2.06-1.55,3.24-2.44,1.09.81,2,1.41,2.86,2.14,22.31,19.67,47,35.95,72,52q50.28,32.41,99.7,66.16c37.6,25.7,70.55,56.47,97.34,93.51a342.8,342.8,0,0,1,63.56,162.69,404.5,404.5,0,0,1,2.43,51.74c-.31,32.86-.2,65.73-.25,98.6,0,12.73,0,25.46,0,38.19,0,1.48-.18,3-.32,5.09H914.5Zm287.87.11H1005.42V1236.1h196.75C1203.34,1240.34,1203.56,1617,1202.37,1623Zm222.06-.65c-3.91,1.11-120.46,1.56-130,.44V1236.06h130Zm193.81.67H1513.86V667.85c4.07-1.16,97-1.46,104.38-.29Zm25-1042.76c-1.47,7.4-4,14.6-6.08,22.24H1495.39c-1.65-5.16-3.54-10.3-4.94-15.57-4-15.13-4.93-30.36-.35-45.54,4.19-13.89,12.36-25.22,23.55-34.22a162.58,162.58,0,0,1,19.71-13.48c11.33-6.61,22.67-13.12,32.55-22.38,1.24,1,2.32,2,3.53,2.85,8.78,5.95,17.56,11.93,26.41,17.78,6.18,4.08,12.76,7.58,18.66,12C1640.19,523.29,1649.44,549,1643.21,580.3Z" transform="translate(-12.2 -12.26)"/></svg>